<svg id="Layer_1" data-name="Layer 1" xmlns="http://www.w3.org/2000/svg" viewBox="0 0 1080 465.76"><defs><style>.cls-1{fill:#68c28f;}</style></defs><path class="cls-1" d="M975.27,345.88c0-50.54.06-99.75,0-148.95-.07-38.86-12.36-51-51.24-51-27.33,0-54.67-.25-82,.16-28.24.42-43.72,16.05-43.92,44.56-.31,45.12-.09,90.25-.09,135.38v20.09H772.4V224.74c0-12.47-.09-24.94.05-37.41.4-38.51,26.45-66.66,65.13-68.07,33.23-1.21,66.58-1.28,99.8,0,38.06,1.51,63.45,29.27,63.53,67.18.12,52.75,0,105.5,0,159.41Z"/><path class="cls-1" d="M759,119.07V145.4H739.88c-45.75,0-91.49-.21-137.23.08-30.72.19-44.39,14.26-44.46,44.78-.06,29.09-.15,58.18,0,87.27.18,27.67,16.28,43.88,44.39,44.07,45.74.31,91.48.1,137.23.11h18.81v25.42H691.86c-31.48,0-63,.21-94.46-.07-34.8-.31-62.56-23.82-64.43-58.3a1087.56,1087.56,0,0,1,0-112c1.55-31.45,26.16-56.25,57.8-57.19C646.5,117.89,702.29,119.07,759,119.07Z"/><path class="cls-1" d="M519,120.29c0,57,1.09,113.39-.43,169.7-.82,30.08-30.09,56.07-61,56.8-35.66.84-71.39.91-107-.07-30.29-.84-56.65-26.62-59.66-56.23a123.45,123.45,0,0,1-.26-12.47c0-52.23,0-104.46,0-157.89h25.65v18.72c0,45.76-.25,91.53.05,137.3.19,29.4,16.05,45,45.29,45.22q42.81.3,85.65,0c29.85-.25,46.25-16.6,46.37-46.5.21-51.07.06-102.15.06-154.58Z"/><path class="cls-1" d="M277.53,118.9v26.5H229.74c-27.31,0-54.62-.25-81.92.09-28.43.36-42.67,14.72-42.74,42.78-.13,52.12,0,104.24,0,157.57H80.3c-.39-4.84-1.15-9.93-1.16-15-.09-47.45-.2-94.91,0-142.37.18-43.92,25.82-69.39,69.74-69.51C191.46,118.81,234,118.9,277.53,118.9Z"/><path class="cls-1" d="M346.82,119.78H370.2c5.74,35.63,5.75,34.68,46.52,35,27.24.2,18.39-20,21.54-34.7h22.6c10.51,35.4-6.58,59.76-42.84,60.47-7.1.14-14.21,0-21.32,0C355.79,180.31,341.06,162.84,346.82,119.78Z"/><path class="cls-1" d="M247.76,264.47H225.15C218,228.9,218,230,179.93,229.27c-26.81-.53-22,18.67-24.14,34.85H132.64c-8.64-38,8.22-59.87,46.42-60,7.7,0,15.41,0,23.12,0,32.73.21,46.32,13.9,46.21,46.59C248.37,254.76,248,258.83,247.76,264.47Z"/><path class="cls-1" d="M666.84,264.18H643.19c-6.27-41.37,9.45-60,49.88-60.09,3.56,0,7.14.29,10.66,0,41.68-3.92,60.23,16.34,55.22,59.73H735.33c-6-34.9-6-34.9-44.62-34.12C671.38,230.05,671.38,230.05,666.84,264.18Z"/><path class="cls-1" d="M942.31,346.65H920.37c-7.92-36.6-7.9-35.89-47.89-35-25.34.54-20.12,19.36-22,34.73H827.61c-6.46-42.34,8.37-60,49.65-60.08H891.5C932.91,286.36,947.25,302.92,942.31,346.65Z"/></svg>