<svg id="Layer_1" data-name="Layer 1" xmlns="http://www.w3.org/2000/svg" viewBox="0 0 1080 465.76"><defs><style>.cls-1,.cls-2{fill:#010101;}.cls-1{fill-rule:evenodd;}.cls-3{fill:#020202;}</style></defs><path class="cls-1" d="M670.69,223c-17.36,53.24-66.11,94.66-127.92,94.66-65.54,0-109.6-40.86-127.29-93.5,18.4,49,68.49,84.2,127.39,84.2,59.35,0,109.76-35.72,127.82-85.36M415.18,141.74c17.43-53.1,58.67-94.12,127.59-94.12,64.06,0,111.13,41.58,128.2,95.28-17.81-50.05-68.44-86.16-128.1-86.16-59.22,0-109.52,35.55-127.69,85"/><path class="cls-1" d="M545.48,128.63c.83-1.22,3.31-.41,5.07-.37,2.38.05,1.81,3.5,5.08,2.81s3.3,3.06,8,2.93-.93,1.61-.93,1.61-2.89-1.38-4.77-.46c-1,.48.37-.27-1.27-1.61-2.57-2.07-2.23.39-6.54-3.22-3-2.54-5.94.3-4.6-1.69m23.43,94.24a9.69,9.69,0,0,1,5.24,5.35c2.52,6.59-1.23,1.25-1.23,11.19,0,9.16-2.62,7.67-2.62,7.67s-.57,10.82-6.23,17.47c-3.61,3.57-.81,6.53-.81,6.53s-1.22.67-3,8.52c-.57,2.54,2.72,6.46,5.59,5.48,2.14-.73-5.22-1.43,2.76-4.75,3.08-1.28.56-3.69.56-3.69s5.17-.38,8.08-8.08c5.14.74,3.23-2.36,13.82-4.61,2.8-.6,3.39-1.43,3-4s3.45.38,13.94-10.15c8.27-8.32,5.29-10.19,11-13.22,6-3.17,6.59.29,8.61-2.31,4.63-5.9,3-5.54,4.91-9.3l1.37-2.09Zm-58.15-87.51c-1.72-4.17-1.6-10.94,2.07-17.2,2.31-3.91,8.44-5.65,13.79-3.59,6-4.66,7.44.36,12.76-1.91,7-3,3.07,7.9,9.84,10.66,2.79-7.34-6.38-12.86-.63-16.33,4.11-2.46,7.2-4,8.88-7.3,2.4-4.71,3.34-8.15,5.18-8.77A4.64,4.64,0,0,0,566,85.5a9,9,0,0,0,8.06-2c-2.69-1.43-6.62-2.66-5.59-5.51,1.21-3.36,10.35,3.47,13-2-5.42-2.34-11-7.4-14.28-8.56-2.28,2.44-3.7,1.45-6.63-.84-5-3.86-5.38-.18-8.48-2.85-2.48,4.91,1.25,4.52,2.4,5.75,3.19,3.44-3.23-3.09-2.61,5.68.16,2.28-3.25,2.7-5.79-2.24-1.33-2.57-11.87-2-13.46-4.49,1.45-2.86,13.86-13.06,32.92-10.61-27.68-10.72-65.09,1-65.46,5.07-3.73,2.3-2.44,4.93-4.3,5.54-3.22,1.06-6.74,10.77-6.74,10.77s2,1.31-4.25,8.22c-5.16,5.68-6.69,14.3-6.69,14.3A25.61,25.61,0,0,1,480.9,115c-.49,5.4-.72,1.4,1.67,5.31,1.38,2.29,2.9,10.28,3.82,7.17,1.76-6-3.21-11.46-2.39-17.38.19.74,1.91-2.34,1.85.45-.19,7.3,9.13,21.39,9.13,21.39s-3.48,3.47.15,3.47Z"/><path class="cls-2" d="M312.4,154.94h-21l3.14,3.69v27.19c0,6.13-4.11,8.7-10.24,8.7S274,192,274,185.82V158.63l3.15-3.69h-21l3.13,3.69v27.64c0,13.57,7.72,18.8,25,18.8s25-5.23,25-18.8V158.63Z"/><polygon class="cls-2" points="385.35 154.94 367.62 154.94 370.77 158.63 370.77 183.4 345.34 154.94 329.4 154.94 332.55 158.63 332.55 200.43 329.4 204.11 347.12 204.11 343.98 200.43 343.98 175.23 370.99 204.11 382.21 204.11 382.21 158.63 385.35 154.94"/><polygon class="cls-2" points="426.2 204.11 423.06 200.43 423.06 158.63 426.2 154.94 405.03 154.94 408.17 158.63 408.17 200.43 405.03 204.11 426.2 204.11"/><polygon class="cls-2" points="496 154.94 478.2 154.94 481.34 158.63 468.78 185.69 456.66 158.63 459.8 154.94 438.85 154.94 462.12 204.11 472.51 204.11 496 154.94"/><polygon class="cls-2" points="555.44 204.11 555.44 190.77 551.7 193.87 526.19 193.87 526.19 184.42 542.35 184.42 546.02 187.53 546.02 171.53 542.35 174.63 526.19 174.63 526.19 165.19 551.7 165.19 555.44 168.29 555.44 154.94 508.47 154.94 511.61 158.63 511.61 200.43 508.47 204.11 555.44 204.11"/><path class="cls-1" d="M626.94,204.11l-13.52-19.39c6.65-2.66,11.28-7.74,11.28-14.89,0-8.18-5.08-14.89-19.3-14.89H574.29l3.15,3.69v41.79l-3.15,3.69h20.87L592,200.42V186.49h6.27l9.56,13.93-3.13,3.69Zm-17.19-33.25c0,3.54-3.44,6.42-8.23,6.42H592V165.19h11.28c3.29,0,6.44,1.63,6.44,5.67"/><path class="cls-2" d="M690.14,189.74c0-7.82-6.36-12.16-15.57-15.11-6-1.84-14.43-3.17-14.43-7.08,0-1.92,2.32-3.25,6.36-3.25,5.39,0,14.21,2.22,21.08,5.46V153.33l-4,3.75a52.06,52.06,0,0,0-16.46-3.46c-17,0-22.44,7.37-22.44,14.08,0,9.14,6.14,13.12,15.79,16.44,7.17,2.43,13.83,2.65,13.83,6.7,0,3.47-4.11,3.91-6.2,3.91A46.35,46.35,0,0,1,645,187.53v18.2l4-4.28c3.89,1.49,12.64,4,19.82,4,14.72,0,21.32-6.41,21.32-15.69"/><path class="cls-1" d="M764.74,204.11l-24.53-49.17H723.38l1.79,3.69L703,204.11h18.33l-3.15-3.69,2.47-5.15h23.78l2.39,5.15-3.14,3.69Zm-24-17.69H724.19l8.24-17.61Z"/><polygon class="cls-2" points="823.85 204.11 823.85 190.77 820.1 193.87 796.1 193.87 796.1 158.63 799.24 154.94 778.37 154.94 781.51 158.63 781.51 200.43 778.37 204.11 823.85 204.11"/><path class="cls-2" d="M810.53,161.76a6.31,6.31,0,1,0,6.3-6.22,6.26,6.26,0,0,0-6.3,6.22m-.66,0a7,7,0,1,1,7,6.87,6.91,6.91,0,0,1-7-6.87"/><path class="cls-1" d="M819.46,159.08a3.65,3.65,0,0,0-2.41-.84,3.56,3.56,0,1,0,0,7.12,3.83,3.83,0,0,0,2.53-.94v-.91a3.38,3.38,0,0,1-2.55,1.23,2.95,2.95,0,0,1,0-5.89,3.23,3.23,0,0,1,2.45,1.11v-.88Z"/><path class="cls-3" d="M78.83,383.79l-2.17,2.49V405a14.89,14.89,0,0,1-1,5.89,9.17,9.17,0,0,1-3.09,3.91,14.25,14.25,0,0,1-5.3,2.22,37.19,37.19,0,0,1-7.82.71,36.75,36.75,0,0,1-7.77-.71,14.37,14.37,0,0,1-5.31-2.22,9.08,9.08,0,0,1-3.13-3.92,14.92,14.92,0,0,1-1-5.88V386.28L40,383.79H54.52l-2.17,2.49v18.4a5.26,5.26,0,0,0,1.88,4.43,8.26,8.26,0,0,0,5.18,1.46,8.35,8.35,0,0,0,5.2-1.45,5.23,5.23,0,0,0,1.89-4.44v-18.4l-2.17-2.48h14.5Z"/><path class="cls-3" d="M134.5,383.79l-2.17,2.49v30.77h-7.77L105.93,397.5v17.06l2.17,2.49H95.87L98,414.56V386.28l-2.17-2.49h11l17.55,19.26V386.28l-2.17-2.49Z"/><path class="cls-3" d="M167.93,417.05h-14.6l2.17-2.48V386.28l-2.17-2.48h14.6l-2.17,2.48v28.29Z"/><path class="cls-3" d="M221.58,383.79l-16.21,33.26h-7.18l-16.06-33.26H196.6l-2.17,2.49,8.37,18.3,8.67-18.3-2.16-2.49Z"/><path class="cls-3" d="M268,417.05H235.53l2.17-2.48V386.28l-2.17-2.48H268v9l-2.6-2.1H247.76v6.38H258.9l2.55-2.09v10.81l-2.55-2.1H247.75v6.38h17.6L268,408v9Z"/><path class="cls-3" d="M322.61,417.05H307.28l2.17-2.48-6.6-9.43h-4.34v9.43l2.17,2.48h-14.4l2.17-2.48V386.28l-2.17-2.48h21.48q7,0,10.14,2.77A9.92,9.92,0,0,1,319,399.93a13.47,13.47,0,0,1-5.7,4Zm-11.87-22.5a3.46,3.46,0,0,0-2.25-3.42,6,6,0,0,0-2.19-.4h-7.79v8.18h6.56a6.36,6.36,0,0,0,4.05-1.26A3.82,3.82,0,0,0,310.74,394.55Z"/><path class="cls-3" d="M371.52,407.33a10.26,10.26,0,0,1-.87,4.34A8.62,8.62,0,0,1,368,415a13.24,13.24,0,0,1-4.59,2.18,24.66,24.66,0,0,1-6.54.77,30.33,30.33,0,0,1-4.93-.44,47.42,47.42,0,0,1-5.1-1.12c-1.63-.45-2.86-.83-3.66-1.14l-2.75,2.89V405.83a30.7,30.7,0,0,0,8.36,3.68,29.37,29.37,0,0,0,7.6,1.21,7.58,7.58,0,0,0,3-.55,2.24,2.24,0,0,0,.16-4,19.85,19.85,0,0,0-4.27-1.47c-2.08-.55-3.45-.93-4.12-1.16a23.11,23.11,0,0,1-8.2-4.32,8.78,8.78,0,0,1-2.7-6.81,7.92,7.92,0,0,1,1.5-4.61,10.62,10.62,0,0,1,5-3.53,24.91,24.91,0,0,1,9-1.38,21.94,21.94,0,0,1,2.7.19c1,.12,2,.3,3.18.54s2.18.5,3.07.77,1.69.55,2.4.84l2.75-2.53v11.13a45.5,45.5,0,0,0-10.29-3.25,24.45,24.45,0,0,0-4.29-.45,7,7,0,0,0-3.21.61,1.79,1.79,0,0,0-1.18,1.58,2,2,0,0,0,.89,1.6A8,8,0,0,0,354,395.1c.92.34,2.11.7,3.58,1.1s2.55.7,3.24.92a22.13,22.13,0,0,1,8,4.05A7.82,7.82,0,0,1,371.52,407.33Z"/><path class="cls-3" d="M428.38,417.05H413.81l2.17-2.48-1.64-3.51H397.9l-1.69,3.51,2.17,2.48H385.72l15.33-30.77-1.24-2.49h11.63Zm-16.59-12-5.72-11.91-5.67,11.91Z"/><path class="cls-3" d="M474.49,417.05H443.11l2.16-2.48V386.28l-2.16-2.48H457.5l-2.17,2.48v23.83H471.9l2.6-2.09v9Z"/><path class="cls-3" d="M560.83,417.05h-14.1l2.17-2.48v-16l-9.13,18.45H535L524.64,398.3v16.27l2.17,2.48H514.89l2.17-2.48V386.28l-2.17-2.48H527l11.19,20.35,10.24-20.35h12.38l-2.17,2.48v28.29Z"/><path class="cls-3" d="M616.7,383.79l-2.17,2.49V405a14.89,14.89,0,0,1-1,5.89,9.12,9.12,0,0,1-3.1,3.91A14.2,14.2,0,0,1,605.1,417a37.19,37.19,0,0,1-7.82.71,36.75,36.75,0,0,1-7.77-.71,14.37,14.37,0,0,1-5.31-2.22,9.08,9.08,0,0,1-3.13-3.92,14.92,14.92,0,0,1-1-5.88V386.28l-2.17-2.49h14.52l-2.17,2.49v18.4a5.26,5.26,0,0,0,1.88,4.43,10,10,0,0,0,10.38,0,5.23,5.23,0,0,0,1.89-4.44v-18.4l-2.17-2.48h14.5Z"/><path class="cls-3" d="M664.55,407.33a10.41,10.41,0,0,1-.87,4.34A8.74,8.74,0,0,1,661,415a13.06,13.06,0,0,1-4.59,2.18,24.66,24.66,0,0,1-6.54.77,30.43,30.43,0,0,1-4.93-.44,47.77,47.77,0,0,1-5.09-1.12c-1.64-.45-2.86-.83-3.67-1.14l-2.75,2.89V405.83a30.7,30.7,0,0,0,8.36,3.68,29.37,29.37,0,0,0,7.6,1.21,7.63,7.63,0,0,0,3-.55,2.24,2.24,0,0,0,.16-4,19.85,19.85,0,0,0-4.27-1.47c-2.08-.55-3.45-.93-4.13-1.16a23.14,23.14,0,0,1-8.19-4.32,8.78,8.78,0,0,1-2.7-6.81,7.92,7.92,0,0,1,1.5-4.61,10.62,10.62,0,0,1,5-3.53,24.91,24.91,0,0,1,9-1.38,21.94,21.94,0,0,1,2.7.19c1,.12,2,.3,3.17.54s2.19.5,3.08.77,1.69.55,2.4.84l2.74-2.53v11.13a42.89,42.89,0,0,0-5.13-2,43.55,43.55,0,0,0-5.15-1.29,24.45,24.45,0,0,0-4.29-.45,7,7,0,0,0-3.21.61,1.79,1.79,0,0,0-1.18,1.58,2,2,0,0,0,.89,1.6A8,8,0,0,0,647,395.1c.92.34,2.11.7,3.58,1.1s2.55.7,3.24.92a22.13,22.13,0,0,1,8,4.05A7.82,7.82,0,0,1,664.55,407.33Z"/><path class="cls-3" d="M697.48,417.05h-14.6l2.17-2.48V386.28l-2.17-2.48h14.6l-2.17,2.48v28.29Z"/><path class="cls-3" d="M748,414.66a15.71,15.71,0,0,1-2.44,1.07,29.27,29.27,0,0,1-3.28,1,38.27,38.27,0,0,1-3.87.72,27.65,27.65,0,0,1-3.95.29,28.36,28.36,0,0,1-7.6-1,18.75,18.75,0,0,1-6.35-3.12,14.62,14.62,0,0,1-4.38-5.45,17.84,17.84,0,0,1-1.58-7.74,17.35,17.35,0,0,1,1.33-6.82,15.25,15.25,0,0,1,4-5.51,18.28,18.28,0,0,1,6.42-3.64,26.72,26.72,0,0,1,8.63-1.29,30.77,30.77,0,0,1,3.91.25,36.94,36.94,0,0,1,3.67.65,28.8,28.8,0,0,1,3.11.9l2.37-2.19v11.07a26.69,26.69,0,0,0-3.87-1.91,23.62,23.62,0,0,0-4.12-1.18,24.56,24.56,0,0,0-4.51-.41c-3.42,0-5.95.94-7.62,2.84a11.69,11.69,0,0,0-1.21,12.53,8.86,8.86,0,0,0,3.68,3.57,11.59,11.59,0,0,0,5.48,1.26,21.62,21.62,0,0,0,5.2-.58,19.6,19.6,0,0,0,3.91-1.35c1-.51,2.07-1.08,3.11-1.72v7.79Z"/><path class="cls-3" d="M815.23,403.1,813,400.54h12.28v13.32a19.32,19.32,0,0,1-2.85,1.35,33.7,33.7,0,0,1-4,1.26,39.71,39.71,0,0,1-4.44.91,30.17,30.17,0,0,1-4.39.32,27.35,27.35,0,0,1-10.08-1.82,15.61,15.61,0,0,1-10.26-15.48,15.72,15.72,0,0,1,3-9.77,17,17,0,0,1,7.62-5.69,27,27,0,0,1,9.77-1.81,27.61,27.61,0,0,1,6,.55c1.58.37,3.36.88,5.35,1.55l2.75-2.48v11.41a36.71,36.71,0,0,0-6.58-2.82,23.48,23.48,0,0,0-7-1,11.71,11.71,0,0,0-4.24.72,8.69,8.69,0,0,0-3.16,2,8.91,8.91,0,0,0-2,3.18,11.92,11.92,0,0,0-.68,4.13,10.1,10.1,0,0,0,2.68,7.36,9.78,9.78,0,0,0,7.38,2.76,29.93,29.93,0,0,0,5.07-.56Z"/><path class="cls-3" d="M878.41,417.05H863.08l2.17-2.48-6.61-9.43h-4.33v9.43l2.16,2.48H842.08l2.17-2.48V386.28l-2.17-2.48h21.48q7,0,10.14,2.77a9.24,9.24,0,0,1,3.17,7.3,9.35,9.35,0,0,1-2.09,6.06,13.53,13.53,0,0,1-5.7,4Zm-11.88-22.5a3.6,3.6,0,0,0-.61-2.16,3.7,3.7,0,0,0-1.63-1.26,6,6,0,0,0-2.19-.4h-7.79v8.18h6.55a6.39,6.39,0,0,0,4.06-1.26A3.84,3.84,0,0,0,866.53,394.55Z"/><path class="cls-3" d="M934.26,400.4a16.65,16.65,0,0,1-2.83,9.93,16.33,16.33,0,0,1-7.32,5.76,26.8,26.8,0,0,1-19.39,0A16,16,0,0,1,894.5,400.4a17.6,17.6,0,0,1,1.67-7.91,14.93,14.93,0,0,1,4.54-5.47,19.53,19.53,0,0,1,6.37-3.09,27.72,27.72,0,0,1,14.72,0,19.57,19.57,0,0,1,6.32,3.08,14.91,14.91,0,0,1,4.47,5.45A17.72,17.72,0,0,1,934.26,400.4Zm-10.79,0q0-4.84-2.19-7.56t-6.87-2.72a9.64,9.64,0,0,0-5.14,1.26,7.3,7.3,0,0,0-3,3.55,14.39,14.39,0,0,0-.94,5.47,16.41,16.41,0,0,0,.51,4.21,8.8,8.8,0,0,0,1.64,3.28,7.37,7.37,0,0,0,2.85,2.1,11.79,11.79,0,0,0,8.17,0,7.22,7.22,0,0,0,2.83-2.1,8.79,8.79,0,0,0,1.61-3.22A16.21,16.21,0,0,0,923.47,400.4Z"/><path class="cls-3" d="M988.16,383.79,986,386.28V405a14.9,14.9,0,0,1-1,5.89,9.27,9.27,0,0,1-3.1,3.91,14.25,14.25,0,0,1-5.3,2.22A43.15,43.15,0,0,1,961,417a14.52,14.52,0,0,1-5.31-2.22,9.08,9.08,0,0,1-3.13-3.92,14.92,14.92,0,0,1-1-5.88V386.28l-2.17-2.49h14.52l-2.16,2.49v18.4a5.24,5.24,0,0,0,1.88,4.43,10,10,0,0,0,10.37,0,5.23,5.23,0,0,0,1.89-4.44v-18.4l-2.17-2.48h14.5Z"/><path class="cls-3" d="M1040,394.82q0,7.15-4.6,9.86t-12,2.7h-6v7.18l2.17,2.49h-14.39l2.16-2.49V386.28l-2.16-2.49h18.53a30.92,30.92,0,0,1,7.69.93,13,13,0,0,1,6.1,3.38A9,9,0,0,1,1040,394.82Zm-10.49.58a3.94,3.94,0,0,0-1.63-3.63,8.71,8.71,0,0,0-4.67-1h-5.78v10h4.87a10,10,0,0,0,5.46-1.16C1028.93,398.84,1029.51,397.44,1029.51,395.4Z"/></svg>